HIERARCHY
ROOT Hips
{
  OFFSET 5.84602e-005 68.8428 3.50346
  CHANNELS 6 Xposition Yposition Zposition Zrotation Xrotation Yrotation
  JOINT Spine
  {
    OFFSET 0 8.597 -4.6522
    CHANNELS 3 Zrotation Xrotation Yrotation
    JOINT Spine1
    {
      OFFSET 0 7.8454 0.4098
      CHANNELS 3 Zrotation Xrotation Yrotation
      JOINT Spine2
      {
        OFFSET 0 9.7078 -2.1609
        CHANNELS 3 Zrotation Xrotation Yrotation
        JOINT Neck
        {
          OFFSET 0 21.8761 -0.4549
          CHANNELS 3 Zrotation Xrotation Yrotation
          JOINT Head
          {
            OFFSET 0 12.3537 3.3602
            CHANNELS 3 Zrotation Xrotation Yrotation
            End Site
            {
              OFFSET 0.0001 18.9506 0.5657
            }
          }
        }
        JOINT LeftShoulder
        {
          OFFSET 2.2086 21.1115 7.2329
          CHANNELS 3 Zrotation Xrotation Yrotation
          JOINT LeftArm
          {
            OFFSET 13.1193 3.0282 -4.8998
            CHANNELS 3 Zrotation Xrotation Yrotation
            JOINT LeftForeArm
            {
              OFFSET 27.4081 -0.0973053 -0.2375
              CHANNELS 3 Zrotation Xrotation Yrotation
              JOINT LeftHand
              {
                OFFSET 22.8641 0.0662994 -0.1369
                CHANNELS 3 Zrotation Xrotation Yrotation
                JOINT LeftHandIndex1
                {
                  OFFSET 8.8614 0.775009 2.4612
                  CHANNELS 3 Zrotation Xrotation Yrotation
                  JOINT LeftHandIndex2
                  {
                    OFFSET 3.3146 -0.808304 0.5841
                    CHANNELS 3 Zrotation Xrotation Yrotation
                    JOINT LeftHandIndex3
                    {
                      OFFSET 2.2628 -0.552002 0.3989
                      CHANNELS 3 Zrotation Xrotation Yrotation
                      End Site
                      {
                        OFFSET 1.6102 -0.4807 0.2612
                      }
                    }
                  }
                }
                JOINT LeftHandMiddle1
                {
                  OFFSET 8.9937 0.895004 0.2143
                  CHANNELS 3 Zrotation Xrotation Yrotation
                  JOINT LeftHandMiddle2
                  {
                    OFFSET 4.0984 0.0113983 -0.0242
                    CHANNELS 3 Zrotation Xrotation Yrotation
                    JOINT LeftHandMiddle3
                    {
                      OFFSET 2.2716 0.00689697 -0.0138001
                      CHANNELS 3 Zrotation Xrotation Yrotation
                      End Site
                      {
                        OFFSET 2.0404 -0.1441 0.0027
                      }
                    }
                  }
                }
                JOINT LeftHandRing1
                {
                  OFFSET 8.5234 0.597198 -2.0164
                  CHANNELS 3 Zrotation Xrotation Yrotation
                  JOINT LeftHandRing2
                  {
                    OFFSET 3.7188 -0.188293 -0.2328
                    CHANNELS 3 Zrotation Xrotation Yrotation
                    JOINT LeftHandRing3
                    {
                      OFFSET 2.1191 -0.106598 -0.1332
                      CHANNELS 3 Zrotation Xrotation Yrotation
                      End Site
                      {
                        OFFSET 1.8737 -0.2304 -0.0886
                      }
                    }
                  }
                }
                JOINT LeftHandPinky1
                {
                  OFFSET 7.9094 -0.601089 -3.4825
                  CHANNELS 3 Zrotation Xrotation Yrotation
                  JOINT LeftHandPinky2
                  {
                    OFFSET 2.2874 -0.477005 -0.6314
                    CHANNELS 3 Zrotation Xrotation Yrotation
                    JOINT LeftHandPinky3
                    {
                      OFFSET 1.6774 -0.349396 -0.4633
                      CHANNELS 3 Zrotation Xrotation Yrotation
                      End Site
                      {
                        OFFSET 1.4888 -0.4091 -0.3416
                      }
                    }
                  }
                }
                JOINT LeftHandThumb1
                {
                  OFFSET 1.833 -1.3875 1.3896
                  CHANNELS 3 Zrotation Xrotation Yrotation
                  JOINT LeftHandThumb2
                  {
                    OFFSET 3.4129 -1.121 2.5732
                    CHANNELS 3 Zrotation Xrotation Yrotation
                    JOINT LeftHandThumb3
                    {
                      OFFSET 2.2474 -0.804199 1.6192
                      CHANNELS 3 Zrotation Xrotation Yrotation
                      End Site
                      {
                        OFFSET 1.6527 -0.5689 1.1317
                      }
                    }
                  }
                }
              }
            }
          }
        }
        JOINT RightShoulder
        {
          OFFSET -2.2086 21.1115 7.2329
          CHANNELS 3 Zrotation Xrotation Yrotation
          JOINT RightArm
          {
            OFFSET -13.1216 3.0287 -4.9007
            CHANNELS 3 Zrotation Xrotation Yrotation
            JOINT RightForeArm
            {
              OFFSET -27.4081 -0.0973053 -0.2375
              CHANNELS 3 Zrotation Xrotation Yrotation
              JOINT RightHand
              {
                OFFSET -22.8641 0.0664063 -0.1369
                CHANNELS 3 Zrotation Xrotation Yrotation
                JOINT RightHandIndex1
                {
                  OFFSET -8.8614 0.774994 2.4612
                  CHANNELS 3 Zrotation Xrotation Yrotation
                  JOINT RightHandIndex2
                  {
                    OFFSET -3.3146 -0.808304 0.5841
                    CHANNELS 3 Zrotation Xrotation Yrotation
                    JOINT RightHandIndex3
                    {
                      OFFSET -2.2628 -0.552002 0.3989
                      CHANNELS 3 Zrotation Xrotation Yrotation
                      End Site
                      {
                        OFFSET -1.6102 -0.4807 0.2612
                      }
                    }
                  }
                }
                JOINT RightHandMiddle1
                {
                  OFFSET -8.9937 0.894989 0.2143
                  CHANNELS 3 Zrotation Xrotation Yrotation
                  JOINT RightHandMiddle2
                  {
                    OFFSET -4.0984 0.0113983 -0.0242
                    CHANNELS 3 Zrotation Xrotation Yrotation
                    JOINT RightHandMiddle3
                    {
                      OFFSET -2.2716 0.00691223 -0.0138001
                      CHANNELS 3 Zrotation Xrotation Yrotation
                      End Site
                      {
                        OFFSET -2.0404 -0.1441 0.0027
                      }
                    }
                  }
                }
                JOINT RightHandRing1
                {
                  OFFSET -8.5234 0.597198 -2.0164
                  CHANNELS 3 Zrotation Xrotation Yrotation
                  JOINT RightHandRing2
                  {
                    OFFSET -3.7188 -0.188309 -0.2328
                    CHANNELS 3 Zrotation Xrotation Yrotation
                    JOINT RightHandRing3
                    {
                      OFFSET -2.1191 -0.106598 -0.1332
                      CHANNELS 3 Zrotation Xrotation Yrotation
                      End Site
                      {
                        OFFSET -1.8737 -0.2304 -0.0886
                      }
                    }
                  }
                }
                JOINT RightHandPinky1
                {
                  OFFSET -7.9094 -0.601105 -3.4825
                  CHANNELS 3 Zrotation Xrotation Yrotation
                  JOINT RightHandPinky2
                  {
                    OFFSET -2.2874 -0.477005 -0.6314
                    CHANNELS 3 Zrotation Xrotation Yrotation
                    JOINT RightHandPinky3
                    {
                      OFFSET -1.6774 -0.349396 -0.4633
                      CHANNELS 3 Zrotation Xrotation Yrotation
                      End Site
                      {
                        OFFSET -1.4888 -0.4091 -0.3416
                      }
                    }
                  }
                }
                JOINT RightHandThumb1
                {
                  OFFSET -1.833 -1.38751 1.3896
                  CHANNELS 3 Zrotation Xrotation Yrotation
                  JOINT RightHandThumb2
                  {
                    OFFSET -3.41299 -1.12099 2.5732
                    CHANNELS 3 Zrotation Xrotation Yrotation
                    JOINT RightHandThumb3
                    {
                      OFFSET -2.24741 -0.804108 1.6192
                      CHANNELS 3 Zrotation Xrotation Yrotation
                      End Site
                      {
                        OFFSET -1.6527 -0.5689 1.1317
                      }
                    }
                  }
                }
              }
            }
          }
        }
      }
    }
  }
  JOINT RightUpLeg
  {
    OFFSET -9.1966 3.8861 -0.7581
    CHANNELS 3 Zrotation Xrotation Yrotation
    JOINT RightLeg
    {
      OFFSET -0.7359 -41.0265 0
      CHANNELS 3 Zrotation Xrotation Yrotation
      JOINT RightFoot
      {
        OFFSET 0 -40.2855 0
        CHANNELS 3 Zrotation Xrotation Yrotation
        JOINT RightToeBase
        {
          OFFSET 0 -5.6122 11.7359
          CHANNELS 3 Zrotation Xrotation Yrotation
          End Site
          {
            OFFSET 0 0 7.8731
          }
        }
      }
    }
  }
  JOINT LeftUpLeg
  {
    OFFSET 9.1965 3.8864 -0.7581
    CHANNELS 3 Zrotation Xrotation Yrotation
    JOINT LeftLeg
    {
      OFFSET 0.7359 -41.0268 0
      CHANNELS 3 Zrotation Xrotation Yrotation
      JOINT LeftFoot
      {
        OFFSET 0 -40.2855 0
        CHANNELS 3 Zrotation Xrotation Yrotation
        JOINT LeftToeBase
        {
          OFFSET 0 -5.6122 11.7359
          CHANNELS 3 Zrotation Xrotation Yrotation
          End Site
          {
            OFFSET 0 0 7.8731
          }
        }
      }
    }
  }
}
MOTION
Frames:	4
Frame Time:	0.0333333
5.84602e-005 68.8428 3.50346 0 0 -0 0 0 -0 0 0 -0 0 0 -0 0 0 -0 0 0 -0 0 0 -0 0 0 -0 0 0 -0 0 0 -0 0 0 -0 0 0 -0 0 0 -0 0 0 -0 -0.0146107 -8.87603e-005 -2.63497e-007 2.99804e-018 -2.42657e-020 -1.42182e-022 0 0 -0 -0.0187562 -0.001176 5.858e-005 5.06224e-018 3.88251e-019 1.21329e-020 0 0 -0 -0.012269 -0.00324817 0.000675346 -1.74678e-018 3.88251e-019 -0 0 0 -0 0 0 -0 0 0 -0 0 0 -0 0 0 -0 0 0 -0 0 0 -0 0 0 -0 0 0 -0 0 0 -0 0 0 -0 0.0149955 -9.10982e-005 2.64101e-007 -9.69331e-018 1.21329e-020 -4.7394e-023 0 0 -0 0.0189956 -0.00119102 -5.96516e-005 -5.41541e-019 0 2.42657e-020 0 0 -0 0.0122698 -0.00324857 -0.000673756 -2.00796e-019 0 -1.94126e-019 0 0 -0 0 0 -0 0 0 -0 3.39842 1.33031 -0.0637918 -5.65207e-008 0.834868 -0.000436188 -3.39935 -2.16518 -0.0642563 -8.89002e-024 -1.18485e-023 -1.48106e-024 -3.39844 1.35642 0.0640283 -3.18788e-007 0.782166 -0.000588827 3.39931 -2.13858 0.0634662 1.1399e-023 0 -0 
0.121432 22.1904 8.91022 -0 -50.3428 -0 -0.00732746 0.0737504 -0.0867734 -0.0145432 0.147517 -0.173538 -0.0145432 0.147523 -0.173538 -0.00733699 5.96002 -0.00143033 -6.2458e-008 -6.92266 -6.20637e-008 10.3572 16.0875 8.44835 -57.4837 -2.32641 23.2663 16.3643 21.6431 -58.6815 -11.2744 21.4793 0.712614 3.73693e-007 1.29598e-007 -3.21123e-006 1.88065e-007 -1.21284e-006 2.82412e-006 8.25668e-007 -3.94374e-007 2.81584e-006 3.73693e-007 1.29598e-007 -3.21123e-006 -0.0145969 -9.03447e-005 4.99737e-006 8.24419e-007 -3.9474e-007 2.81579e-006 3.73693e-007 1.29598e-007 -3.21123e-006 -0.0187593 -0.00117654 6.61302e-005 3.18055e-015 1.59028e-015 -0 3.73693e-007 1.29598e-007 -3.21123e-006 -0.0122647 -0.00324665 0.000678775 -7.95139e-015 3.18055e-015 3.18055e-015 3.73693e-007 1.29598e-007 -3.21123e-006 1.88065e-007 -1.21284e-006 2.82412e-006 8.25668e-007 -3.94374e-007 2.81584e-006 -10.8483 15.9844 -8.32787 57.4505 -2.31492 -23.3845 -16.4071 21.7321 58.9541 11.4463 21.4715 -0.768838 -5.4836e-007 9.58662e-007 -8.82539e-008 -1.79051e-006 1.60803e-006 -1.98203e-007 -5.4836e-007 9.58662e-007 -8.82539e-008 -5.4836e-007 9.58662e-007 -8.82539e-008 0.0150088 -8.86152e-005 -4.41441e-006 1.85165e-007 3.61778e-007 -1.29987e-007 -5.4836e-007 9.58662e-007 -8.82539e-008 0.0190264 -0.00119503 -6.18815e-005 -5.46978e-007 9.5856e-007 -8.84119e-008 -5.4836e-007 9.58662e-007 -8.82539e-008 0.0122935 -0.00325363 -0.000677507 -5.47474e-007 9.58413e-007 -8.83905e-008 -5.4836e-007 9.58662e-007 -8.82539e-008 -1.79051e-006 1.60803e-006 -1.98203e-007 -5.4836e-007 9.58662e-007 -8.82539e-008 -40.5203 -13.5802 -8.05898 0.836284 36.0898 -2.33392 0.272857 10.7338 -3.00848 2.45999e-006 -8.19809e-008 8.34277e-006 35.3259 -36.4372 12.1696 -3.81837 72.6686 6.04264 0.229105 9.20882 3.85641 2.42428e-007 8.12781e-007 -7.43875e-008 
0.385103 -4.29549 9.75202 -0 -79.9173 -0 -0.029077 0.232171 -0.134885 -0.0576082 0.464361 -0.269656 -0.0576081 0.464355 -0.269656 0.0137971 9.46294 0.001361 3.70058e-009 -10.8521 -2.03815e-007 13.843 24.7247 14.1746 -90.0919 -3.15577 36.8164 35.4504 5.81173 -86.4634 -18.0017 33.8907 1.24115 -1.59028e-015 -3.37934e-015 -3.97569e-015 -7.95139e-016 -1.98785e-016 -3.18055e-015 7.95139e-016 6.26172e-015 -4.77083e-015 -1.59028e-015 -3.37934e-015 -3.97569e-015 -0.0146304 -9.10066e-005 -8.4904e-007 5.95131e-007 -1.17968e-006 -7.32894e-007 -1.59028e-015 -3.37934e-015 -3.97569e-015 -0.0187711 -0.00117781 5.73851e-005 5.95495e-007 -1.17955e-006 -7.32947e-007 -1.59028e-015 -3.37934e-015 -3.97569e-015 -0.0122945 -0.0032574 0.000681615 5.56597e-015 -3.8763e-015 4.77083e-015 -1.59028e-015 -3.37934e-015 -3.97569e-015 -7.95139e-016 -1.98785e-016 -3.18055e-015 7.95139e-016 6.26172e-015 -4.77083e-015 -14.6605 24.5779 -13.9642 90.0403 -3.13505 -37.0009 -35.4851 5.61561 86.6542 18.2928 33.8781 -1.33931 0 8.94531e-016 -0 -1.10348e-031 -1.98785e-015 -3.18055e-015 1.59028e-015 8.94531e-016 2.38542e-015 0 8.94531e-016 -0 0.0150072 -9.17533e-005 2.29733e-006 1.59028e-015 8.94531e-015 4.77083e-015 0 8.94531e-016 -0 0.0189772 -0.00119167 -5.76538e-005 7.95139e-016 9.64106e-015 2.38542e-015 0 8.94531e-016 -0 0.0122593 -0.00324598 -0.000671935 -1.10348e-031 -3.97569e-015 -1.59028e-015 0 8.94531e-016 -0 -1.10348e-031 -1.98785e-015 -3.18055e-015 1.59028e-015 8.94531e-016 2.38542e-015 -67.4052 -21.1567 -12.9225 1.92532 55.8111 -3.33827 3.14669 17.8688 -5.98949 2.33174e-006 6.25867e-006 1.08764e-005 67.2728 -55.6116 27.6246 -175.567 66.0746 179.684 -2.53831 14.9971 6.98501 2.27493e-006 7.12772e-007 -1.12547e-007 
0.33855 -0.964367 9.62067 -0 -76.8557 -0 -0.0271552 0.522906 -0.128824 -0.0531378 1.04587 -0.257417 -0.0531381 1.04588 -0.257417 0.0796083 9.10686 0.00801708 -2.65452e-008 -10.0781 -9.43084e-008 13.0486 22.8255 13.3372 -85.842 -2.93398 35.0028 33.5746 8.71243 -83.8792 -16.7766 32.064 1.10001 2.33213e-006 -1.89286e-007 -5.97283e-007 2.52142e-006 2.14284e-006 -6.02816e-007 2.33213e-006 -1.89286e-007 -5.97283e-007 2.33213e-006 -1.89286e-007 -5.97283e-007 -0.0146342 -8.91562e-005 3.00659e-006 2.33213e-006 -1.8921e-007 -5.97309e-007 2.33213e-006 -1.89286e-007 -5.97283e-007 -0.0187654 -0.00117573 5.76163e-005 2.33212e-006 -1.8919e-007 -5.97338e-007 2.33213e-006 -1.89286e-007 -5.97283e-007 -0.0122083 -0.00323374 0.000674034 2.33211e-006 -1.89236e-007 -5.97369e-007 2.33213e-006 -1.89286e-007 -5.97283e-007 2.52142e-006 2.14284e-006 -6.02816e-007 2.33213e-006 -1.89286e-007 -5.97283e-007 -13.7923 22.6884 -13.1522 85.794 -2.91482 -35.1727 -33.6166 8.55896 84.0919 17.0409 32.0528 -1.18805 7.95139e-016 -4.57205e-015 1.59028e-015 3.97569e-016 -1.19271e-015 3.18055e-015 7.95139e-016 2.28602e-015 1.59028e-015 7.95139e-016 -4.57205e-015 1.59028e-015 0.0149968 -9.07452e-005 9.2764e-007 -3.97569e-016 9.93923e-017 -3.18055e-015 7.95139e-016 -4.57205e-015 1.59028e-015 0.0189918 -0.00119295 -6.83788e-005 3.97569e-016 -2.38542e-015 -1.59028e-015 7.95139e-016 -4.57205e-015 1.59028e-015 0.0122589 -0.00324587 -0.000669776 7.95139e-016 4.37326e-015 -1.59028e-015 7.95139e-016 -4.57205e-015 1.59028e-015 3.97569e-016 -1.19271e-015 3.18055e-015 7.95139e-016 2.28602e-015 1.59028e-015 -63.6272 -19.6482 -11.0548 1.75506 52.3838 -4.17238 1.94928 17.1365 -4.31879 -1.28806e-006 1.10164e-006 6.35403e-006 62.3093 -52.9421 24.6438 -174.53 71.1611 178.34 -1.70601 14.4381 6.36854 -2.54872e-009 1.89048e-006 1.9316e-007 
